HIERARCHY
ROOT Hips
{
    OFFSET   0.000000   0.000000   0.000000
    CHANNELS 6 Xposition Yposition Zposition Zrotation Xrotation Yrotation
    JOINT Chest
    {
        OFFSET   0.000000   8.007230   0.000000
        CHANNELS 3 Zrotation Xrotation Yrotation
        JOINT Chest2
        {
            OFFSET   0.000000  22.077100   0.000000
            CHANNELS 3 Zrotation Xrotation Yrotation
            JOINT Neck
            {
                OFFSET   0.000000  23.254800   0.000000
                CHANNELS 3 Zrotation Xrotation Yrotation
                JOINT Head
                {
                    OFFSET   0.000010  14.370000   1.956600
                    CHANNELS 3 Zrotation Xrotation Yrotation
                    End Site
                    {
                        OFFSET   0.000000  19.566000   0.000000
                    }
                }
            }
            JOINT LeftCollar
            {
                OFFSET   3.911900  19.017000  -0.467062
                CHANNELS 3 Zrotation Xrotation Yrotation
                JOINT LeftShoulder
                {
                    OFFSET  10.383700   0.000000   0.000000
                    CHANNELS 3 Zrotation Xrotation Yrotation
                    JOINT LeftElbow
                    {
                        OFFSET  26.662100   0.001193   0.000835
                        CHANNELS 3 Zrotation Xrotation Yrotation
                        JOINT LeftWrist
                        {
                            OFFSET  28.869000  -0.000058  -0.000075
                            CHANNELS 3 Zrotation Xrotation Yrotation
                            JOINT LeftFinger0
                            {
                                OFFSET   2.044660  -2.323460   3.252850
                                CHANNELS 3 Zrotation Xrotation Yrotation
                                JOINT LeftFinger01
                                {
                                    OFFSET   3.088130   0.000000   0.000000
                                    CHANNELS 3 Zrotation Xrotation Yrotation
                                    JOINT LeftFinger02
                                    {
                                        OFFSET   2.639450   0.000000   0.000000
                                        CHANNELS 3 Zrotation Xrotation Yrotation
                                        End Site
                                        {
                                            OFFSET   2.582190   0.000000   0.000000
                                        }
                                    }
                                }
                            }
                            JOINT LeftFinger1
                            {
                                OFFSET   8.364480   0.000000   3.252850
                                CHANNELS 3 Zrotation Xrotation Yrotation
                                JOINT LeftFinger11
                                {
                                    OFFSET   4.646920   0.000000   0.000000
                                    CHANNELS 3 Zrotation Xrotation Yrotation
                                    JOINT LeftFinger12
                                    {
                                        OFFSET   2.323460   0.000000   0.000000
                                        CHANNELS 3 Zrotation Xrotation Yrotation
                                        End Site
                                        {
                                            OFFSET   2.273050   0.000000   0.000000
                                        }
                                    }
                                }
                            }
                            JOINT LeftFinger2
                            {
                                OFFSET   8.364490   0.000016   1.078090
                                CHANNELS 3 Zrotation Xrotation Yrotation
                                JOINT LeftFinger21
                                {
                                    OFFSET   5.111620   0.000000   0.000000
                                    CHANNELS 3 Zrotation Xrotation Yrotation
                                    JOINT LeftFinger22
                                    {
                                        OFFSET   2.788150   0.000012   0.000000
                                        CHANNELS 3 Zrotation Xrotation Yrotation
                                        End Site
                                        {
                                            OFFSET   2.727660   0.000000   0.000000
                                        }
                                    }
                                }
                            }
                            JOINT LeftFinger3
                            {
                                OFFSET   7.899780   0.000014  -1.078090
                                CHANNELS 3 Zrotation Xrotation Yrotation
                                JOINT LeftFinger31
                                {
                                    OFFSET   4.646930   0.000000   0.000000
                                    CHANNELS 3 Zrotation Xrotation Yrotation
                                    JOINT LeftFinger32
                                    {
                                        OFFSET   2.323470   0.000000   0.000000
                                        CHANNELS 3 Zrotation Xrotation Yrotation
                                        End Site
                                        {
                                            OFFSET   2.273050   0.000000   0.000000
                                        }
                                    }
                                }
                            }
                            JOINT LeftFinger4
                            {
                                OFFSET   7.435090   0.000000  -3.252850
                                CHANNELS 3 Zrotation Xrotation Yrotation
                                JOINT LeftFinger41
                                {
                                    OFFSET   3.717550   0.000000   0.000000
                                    CHANNELS 3 Zrotation Xrotation Yrotation
                                    JOINT LeftFinger42
                                    {
                                        OFFSET   1.858770   0.000000   0.000000
                                        CHANNELS 3 Zrotation Xrotation Yrotation
                                        End Site
                                        {
                                            OFFSET   1.818440   0.000000   0.000000
                                        }
                                    }
                                }
                            }
                        }
                    }
                }
            }
            JOINT RightCollar
            {
                OFFSET  -3.911900  19.017000  -0.467063
                CHANNELS 3 Zrotation Xrotation Yrotation
                JOINT RightShoulder
                {
                    OFFSET -10.383700   0.000023   0.000000
                    CHANNELS 3 Zrotation Xrotation Yrotation
                    JOINT RightElbow
                    {
                        OFFSET -26.662100   0.001246   0.001011
                        CHANNELS 3 Zrotation Xrotation Yrotation
                        JOINT RightWrist
                        {
                            OFFSET -28.869000  -0.000026  -0.000078
                            CHANNELS 3 Zrotation Xrotation Yrotation
                            JOINT RightFinger0
                            {
                                OFFSET  -2.044660  -2.323490   3.252850
                                CHANNELS 3 Zrotation Xrotation Yrotation
                                JOINT RightFinger01
                                {
                                    OFFSET  -3.088130   0.000000   0.000000
                                    CHANNELS 3 Zrotation Xrotation Yrotation
                                    JOINT RightFinger02
                                    {
                                        OFFSET  -2.639460   0.000000   0.000000
                                        CHANNELS 3 Zrotation Xrotation Yrotation
                                        End Site
                                        {
                                            OFFSET  -2.582190   0.000000   0.000000
                                        }
                                    }
                                }
                            }
                            JOINT RightFinger1
                            {
                                OFFSET  -8.364480   0.000000   3.252850
                                CHANNELS 3 Zrotation Xrotation Yrotation
                                JOINT RightFinger11
                                {
                                    OFFSET  -4.646920   0.000000   0.000000
                                    CHANNELS 3 Zrotation Xrotation Yrotation
                                    JOINT RightFinger12
                                    {
                                        OFFSET  -2.323470   0.000000   0.000000
                                        CHANNELS 3 Zrotation Xrotation Yrotation
                                        End Site
                                        {
                                            OFFSET  -2.273050   0.000000   0.000000
                                        }
                                    }
                                }
                            }
                            JOINT RightFinger2
                            {
                                OFFSET  -8.364480   0.000000   1.078090
                                CHANNELS 3 Zrotation Xrotation Yrotation
                                JOINT RightFinger21
                                {
                                    OFFSET  -5.111620   0.000000   0.000000
                                    CHANNELS 3 Zrotation Xrotation Yrotation
                                    JOINT RightFinger22
                                    {
                                        OFFSET  -2.788160   0.000000   0.000000
                                        CHANNELS 3 Zrotation Xrotation Yrotation
                                        End Site
                                        {
                                            OFFSET  -2.727660   0.000000   0.000000
                                        }
                                    }
                                }
                            }
                            JOINT RightFinger3
                            {
                                OFFSET  -7.899780   0.000000  -1.078090
                                CHANNELS 3 Zrotation Xrotation Yrotation
                                JOINT RightFinger31
                                {
                                    OFFSET  -4.646930   0.000000   0.000000
                                    CHANNELS 3 Zrotation Xrotation Yrotation
                                    JOINT RightFinger32
                                    {
                                        OFFSET  -2.323470   0.000000   0.000000
                                        CHANNELS 3 Zrotation Xrotation Yrotation
                                        End Site
                                        {
                                            OFFSET  -2.273050   0.000000   0.000000
                                        }
                                    }
                                }
                            }
                            JOINT RightFinger4
                            {
                                OFFSET  -7.435090   0.000000  -3.252850
                                CHANNELS 3 Zrotation Xrotation Yrotation
                                JOINT RightFinger41
                                {
                                    OFFSET  -3.717550   0.000000   0.000000
                                    CHANNELS 3 Zrotation Xrotation Yrotation
                                    JOINT RightFinger42
                                    {
                                        OFFSET  -1.858760   0.000000   0.000000
                                        CHANNELS 3 Zrotation Xrotation Yrotation
                                        End Site
                                        {
                                            OFFSET  -1.818440   0.000000   0.000000
                                        }
                                    }
                                }
                            }
                        }
                    }
                }
            }
        }
    }
    JOINT LeftHip
    {
        OFFSET   9.783010   0.000000   0.000000
        CHANNELS 3 Zrotation Xrotation Yrotation
        JOINT LeftKnee
        {
            OFFSET   0.000073 -41.789100   0.001749
            CHANNELS 3 Zrotation Xrotation Yrotation
            JOINT LeftAnkle
            {
                OFFSET   0.000111 -41.133200  -0.000179
                CHANNELS 3 Zrotation Xrotation Yrotation
                JOINT LeftToe
                {
                    OFFSET   0.000000  -6.358960  14.674500
                    CHANNELS 3 Zrotation Xrotation Yrotation
                    End Site
                    {
                        OFFSET   0.000000   0.000000   3.913200
                    }
                }
            }
        }
    }
    JOINT RightHip
    {
        OFFSET  -9.783010   0.000000   0.000000
        CHANNELS 3 Zrotation Xrotation Yrotation
        JOINT RightKnee
        {
            OFFSET   0.000424 -41.789200   0.005205
            CHANNELS 3 Zrotation Xrotation Yrotation
            JOINT RightAnkle
            {
                OFFSET   0.000000 -41.133200  -0.000155
                CHANNELS 3 Zrotation Xrotation Yrotation
                JOINT RightToe
                {
                    OFFSET   0.000000  -6.358960  14.674500
                    CHANNELS 3 Zrotation Xrotation Yrotation
                    End Site
                    {
                        OFFSET   0.000000   0.000000   3.913200
                    }
                }
            }
        }
    }
}
MOTION
Frames: 5
Frame Time:   0.016667
 -0.075048  89.540500  -0.329816  -2.731170  -6.892760  -3.700120   0.955545   3.336510   0.835265   1.866950   6.686200   1.618720   0.114173  -1.002760   0.008899   0.187748  -2.033560   1.820420  -4.512250  -0.764316   2.442970 -76.322900  11.378000   0.912286  -0.928144  -1.836300 -15.197800  10.763000  -0.177099   2.601460  35.856400  26.859900 -52.118000 -34.129700  -0.003189  -0.002120 -12.066100  -0.001305  -0.001779 -28.593000   5.411950  -9.808990 -23.775200   0.003173   0.002258 -16.642600   0.002244  -0.000977 -28.131500  -1.243220   2.331070 -33.076400   0.008566   0.001867 -22.028900   0.002924   0.008874 -27.978100  -1.237000   2.334470 -31.995600   0.002764   0.004811 -21.309100   0.005349   0.003658 -30.324800  -1.333910   2.283650 -45.526800  -0.000694   0.002869 -30.320900  -0.001423   0.001321   8.505520   0.848257   5.690550  71.596300   5.186510  -7.571150  -0.526696  -7.761730  10.843200 -13.129900  -9.543190   1.754780 -40.244200  26.684200  60.826900  23.569500   0.000436  -0.000684   6.784740   0.000463   0.001487  27.096600   9.915880  18.601300  23.501800  -0.005778   0.010986  16.451300  -0.007251   0.006196  27.703000   4.730100   8.926310  32.464100  -0.006187   0.008087  21.621100   0.002986   0.009853  27.832100   4.603710   8.622080  33.237900   0.000275   0.005481  22.136500  -0.001103   0.003354  33.682600   0.531012   0.796162  50.529400   0.004489   0.003391  33.652600   0.003330   0.001428   1.808400   9.661540   5.185400   1.126930   0.122443   3.378150  -1.031520  -3.398560   1.930810  -0.000000   0.000000   0.000000   2.646580   8.793250   1.243370  -1.561050   1.561760  -6.198000   0.229311  -3.824710   1.743250  -0.000000   0.000000   0.000000
 -0.055238  89.540500  -0.317128  -2.727300  -6.895560  -3.719610   0.956062   3.345150   0.834306   1.867940   6.703450   1.616640   0.122791  -1.029350   0.008890   0.201879  -2.087610   1.838250  -4.511890  -0.772111   2.443160 -76.307600  11.412800   0.889840  -0.928784  -1.853510 -15.198500  10.757400  -0.177101   2.600430  35.849800  26.859400 -52.140600 -34.129700  -0.003224  -0.002154 -12.066000  -0.001311  -0.001798 -28.604000   5.411940  -9.808990 -23.783800   0.003161   0.002251 -16.648600   0.002243  -0.000984 -28.131500  -1.243240   2.331280 -33.094200   0.008607   0.001827 -22.040700   0.002940   0.008914 -27.978000  -1.237020   2.334680 -32.012900   0.002764   0.004815 -21.320600   0.005371   0.003660 -30.336700  -1.333930   2.283750 -45.544700  -0.000691   0.002891 -30.332900  -0.001432   0.001333   8.505150   0.848348   5.701220  71.582600   5.190340  -7.557740  -0.520104  -7.772630  10.848100 -13.109100  -9.534320   1.759180 -40.230200  26.703500  60.846300  23.590500   0.000441  -0.000688   6.795260   0.000463   0.001486  27.098700   9.909930  18.589400  23.500700  -0.005771   0.010989  16.450500  -0.007253   0.006193  27.702700   4.723580   8.913880  32.462000  -0.006180   0.008081  21.619700   0.002990   0.009849  27.830100   4.603520   8.624700  33.231700   0.000280   0.005476  22.132400  -0.001111   0.003348  33.682000   0.532237   0.798168  50.528500   0.004484   0.003384  33.652000   0.003323   0.001425   1.799310   9.716670   5.186330   1.120450   0.065401   3.399870  -1.039360  -3.388030   1.926210   0.000000   0.000000   0.000000   2.590760   8.794030   1.222910  -1.511610   1.562070  -6.148250   0.229203  -3.822700   1.743470  -0.000000   0.000000   0.000000
 -0.024061  89.540600  -0.295953  -2.723920  -6.901910  -3.741230   0.957158   3.361070   0.831522   1.870110   6.735250   1.610760   0.142091  -1.077150   0.008862   0.233604  -2.184640   1.866770  -4.511390  -0.783437   2.443340 -76.276600  11.477400   0.853464  -0.933530  -1.885390 -15.202700  10.744700  -0.177102   2.597760  35.843100  26.858800 -52.163100 -34.129700  -0.003287  -0.002212 -12.065900  -0.001327  -0.001833 -28.615000   5.411900  -9.808990 -23.792400   0.003129   0.002237 -16.654700   0.002237  -0.000997 -28.131400  -1.243270   2.331500 -33.112000   0.008710   0.001731 -22.052600   0.002978   0.009016 -27.978000  -1.237050   2.334890 -32.030300   0.002764   0.004825 -21.332200   0.005423   0.003667 -30.348600  -1.333980   2.283980 -45.562700  -0.000686   0.002938 -30.344800  -0.001452   0.001360   8.504680   0.848480   5.718470  71.559500   5.200080  -7.539010  -0.506650  -7.783440  10.856300 -13.076200  -9.514340   1.765280 -40.232500  26.730900  60.873000  23.623000   0.000446  -0.000699   6.811510   0.000466   0.001482  27.091900   9.896850  18.571900  23.493300  -0.005756   0.010993  16.445300  -0.007256   0.006182  27.700300   4.713380   8.895290  32.447100  -0.006167   0.008064  21.609700   0.002999   0.009836  27.825300   4.603290   8.631030  33.207100   0.000289   0.005461  22.116000  -0.001136   0.003334  33.677500   0.535770   0.803971  50.521900   0.004471   0.003368  33.647600   0.003301   0.001416   1.790150   9.771800   5.187700   1.114010   0.008361   3.432420  -1.053860  -3.377530   1.912650  -0.000000   0.000000   0.000000   2.505230   8.796500   1.202450  -1.433470   1.563330  -6.098510   0.228815  -3.820690   1.745060  -0.000000   0.000000   0.000000
 -0.003402  89.540600  -0.278538  -2.727240  -6.911390  -3.743760   0.958953   3.377920   0.826121   1.873830   6.768890   1.599590   0.167332  -1.124330   0.008804   0.275137  -2.280060   1.888990  -4.513350  -0.789764   2.443300 -76.238800  11.549200   0.826623  -0.949722  -1.920990 -15.215000  10.722000  -0.170878   2.592210  35.843900  26.858900 -52.161400 -34.129700  -0.003353  -0.002266 -12.065700  -0.001360  -0.001868 -28.605500   5.411780  -9.813240 -23.784800   0.003078   0.002222 -16.649400   0.002223  -0.001013 -28.131400  -1.243320   2.328220 -33.095400   0.008867   0.001587 -22.041600   0.003035   0.009170 -27.977900  -1.237100   2.331590 -32.018200   0.002766   0.004839 -21.324100   0.005499   0.003677 -30.342200  -1.334040   2.284280 -45.553200  -0.000680   0.003004 -30.338500  -0.001480   0.001394   8.504490   0.848554   5.734100  71.539800   5.215480  -7.531030  -0.488881  -7.782730  10.864700 -13.049100  -9.479450   1.767660 -40.251300  26.759500  60.861700  23.641600   0.000441  -0.000716   6.820850   0.000485   0.001464  27.060300   9.878640  18.563900  23.465600  -0.005739   0.010991  16.425900  -0.007260   0.006160  27.693500   4.707080   8.886080  32.397600  -0.006153   0.008036  21.576700   0.003010   0.009813  27.817600   4.603210   8.641020  33.152100   0.000300   0.005436  22.079400  -0.001180   0.003315  33.650700   0.542311   0.814736  50.481800   0.004452   0.003346  33.620900   0.003264   0.001402   1.795910   9.766690   5.191820   1.109960   0.076834   3.451400  -1.067410  -3.425550   1.888620  -0.000000   0.000000   0.000000   2.455830   8.802170   1.206450  -1.380200   1.574870  -6.107460   0.228448  -3.826880   1.757500   0.000000   0.000000  -0.000000
  0.015901  89.540700  -0.261917  -2.731420  -6.920940  -3.744190   0.960178   3.394810   0.820662   1.876420   6.802600   1.588310   0.199631  -1.172510   0.008745   0.328307  -2.377450   1.905970  -4.516400  -0.792560   2.443000 -76.197100  11.617700   0.800867  -0.968003  -1.953610 -15.231700  10.706100  -0.161213   2.588310  35.848400  26.858300 -52.151600 -34.129700  -0.003422  -0.002313 -12.065600  -0.001396  -0.001907 -28.589900   5.411610  -9.819770 -23.772300   0.003009   0.002202 -16.640600   0.002204  -0.001033 -28.131400  -1.243380   2.323370 -33.068700   0.009060   0.001411 -22.023800   0.003106   0.009361 -27.977900  -1.237160   2.326720 -31.997800   0.002768   0.004856 -21.310500   0.005594   0.003689 -30.330100  -1.334090   2.284590 -45.535300  -0.000671   0.003074 -30.326500  -0.001510   0.001431   8.504710   0.848588   5.743160  71.520700   5.233710  -7.528500  -0.467814  -7.781810  10.869800 -13.033000  -9.454290   1.768330 -40.257000  26.788400  60.831300  23.661100   0.000436  -0.000735   6.830570   0.000512   0.001440  27.023400   9.858870  18.557100  23.431000  -0.005716   0.010989  16.401700  -0.007263   0.006132  27.686000   4.700640   8.876950  32.338500  -0.006135   0.007999  21.537400   0.003026   0.009783  27.809300   4.603350   8.651830  33.090100   0.000316   0.005401  22.038000  -0.001237   0.003289  33.614000   0.549476   0.826536  50.427000   0.004427   0.003317  33.584400   0.003216   0.001384   1.803260   9.761460   5.203570   1.105870   0.145305   3.464880  -1.082450  -3.473590   1.859190  -0.000000   0.000000  -0.000000   2.413420   8.806920   1.213160  -1.331150   1.593770  -6.116430   0.226963  -3.839350   1.768590   0.000000   0.000000  -0.000000
